{"title":"Justice League vs Teen Titans 2016 BRRip x264 AAC-SSN","uid":14126186,"size":1004462541,"categoryP":"video","categoryS":"movies","magnet":"?xt=urn:btih:c21b759172ed1f89e73b3c349688c6bf5f4fffe0&amp;dn=Justice+League+vs+Teen+Titans+2016+BRRip+x264+AAC-SSN&amp;tr=udp%3A%2F%2Ftracker.leechers-paradise.org%3A6969&amp;tr=udp%3A%2F%2Fzer0day.ch%3A1337&amp;tr=udp%3A%2F%2Fopen.demonii.com%3A1337&amp;tr=udp%3A%2F%2Ftracker.coppersurfer.tk%3A6969&amp;tr=udp%3A%2F%2Fexodus.desync.com%3A6969","seeders":1,"leechers":0,"uploader":"somespirit","files":2,"time":1459504170,"description":"IMDB:  http://www.imdb.com/title/tt5091548\r\n\r\n Source: Justice.League.vs.Teen.Titans.2016.720p.BluRay.x264-ROVERS\r\n\r\n\r\n\r\n General\r\n Complete name                            : Justice League vs Teen Titans 2016 BRRip x264 AAC-SSN.mkv\r\n Format                                   : Matroska\r\n Format version                           : Version 4 / Version 2\r\n File size                                : 958 MiB\r\n Duration                                 : 1h 19mn\r\n Overall bit rate                         : 1 691 Kbps\r\n Encoded date                             : UTC 2016-03-31 10:09:29\r\n Writing application                      : mkvmerge v8.6.1 ('Flying') 64bit\r\n Writing library                          : libebml v1.3.3 + libmatroska v1.4.4\r\n\r\n Video\r\n ID                                       : 1\r\n Format                                   : AVC\r\n Format/Info                              : Advanced Video Codec\r\n Format profile                           :   \r\n Format settings, CABAC                   : Yes\r\n Format settings, ReFrames                : 5 frames\r\n Codec ID                                 : V_MPEG4/ISO/AVC\r\n Duration                                 : 1h 19mn\r\n Bit rate                                 : 1 360 Kbps\r\n Width                                    : 900 pixels\r\n Height                                   : 506 pixels\r\n Display aspect ratio                     : 16:9\r\n Frame rate mode                          : Constant\r\n Frame rate                               : 23.976 (24000/1001) fps\r\n Color space                              : YUV\r\n Chroma subsampling                       : 4:2:0\r\n Bit depth                                : 8 bits\r\n Scan type                                : Progressive\r\n Bits/(Pixel*Frame)                       : 0.149\r\n Stream size                              : 771 MiB (80%)\r\n Writing library                          : x264 core 148 r2665 a01e339\r\n Language                                 : English\r\n Default                                  : Yes\r\n Forced                                   : No\r\n\r\n Audio\r\n ID                                       : 2\r\n Format                                   : AAC\r\n Format/Info                              : Advanced Audio Codec\r\n Format profile                           : LC\r\n Codec ID                                 : A_AAC\r\n Duration                                 : 1h 19mn\r\n Bit rate                                 : 329 Kbps\r\n Channel(s)                               : 6 channels\r\n Channel positions                        : Front: L C R, Side: L R, LFE\r\n Sampling rate                            : 32.0 KHz\r\n Frame rate                               : 31.250 fps (1024 spf)\r\n Compression mode                         : Lossy\r\n Stream size                              : 186 MiB (19%)\r\n Language                                 : English\r\n Default                                  : Yes\r\n Forced                                   : No\r\n\r\n \nhttp://lookpic.com/O/i2/1724/BAsBFdpK.png\r\n \nhttp://lookpic.com/O/i2/250/UPqYjMVs.png\r\n \nhttp://lookpic.com/O/i2/1396/HPIhikau.png","torrent":{"xt":"urn:btih:c21b759172ed1f89e73b3c349688c6bf5f4fffe0","amp;dn":"Justice+League+vs+Teen+Titans+2016+BRRip+x264+AAC-SSN","amp;tr":["udp%3A%2F%2Ftracker.leechers-paradise.org%3A6969","udp%3A%2F%2Fzer0day.ch%3A1337","udp%3A%2F%2Fopen.demonii.com%3A1337","udp%3A%2F%2Ftracker.coppersurfer.tk%3A6969","udp%3A%2F%2Fexodus.desync.com%3A6969"],"infoHash":"c21b759172ed1f89e73b3c349688c6bf5f4fffe0","infoHashBuffer":{"type":"Buffer","data":[194,27,117,145,114,237,31,137,231,59,60,52,150,136,198,191,95,79,255,224]},"announce":[],"urlList":[]}}